<?xml version="1.0" encoding="UTF-8" standalone="no"?>
<!-- Created with Inkscape (http://www.inkscape.org/) -->

<svg
   width="16"
   height="16"
   viewBox="0 0 4.2333332 4.2333334"
   version="1.1"
   id="svg1"
   xml:space="preserve"
   sodipodi:docname="nine_patch_sprite_2d.svg"
   inkscape:version="1.3 (0e150ed6c4, 2023-07-21)"
   xmlns:inkscape="http://www.inkscape.org/namespaces/inkscape"
   xmlns:sodipodi="http://sodipodi.sourceforge.net/DTD/sodipodi-0.dtd"
   xmlns="http://www.w3.org/2000/svg"
   xmlns:svg="http://www.w3.org/2000/svg"><sodipodi:namedview
     id="namedview1"
     pagecolor="#ffffff"
     bordercolor="#111111"
     borderopacity="1"
     inkscape:showpageshadow="0"
     inkscape:pageopacity="0"
     inkscape:pagecheckerboard="1"
     inkscape:deskcolor="#d1d1d1"
     showgrid="true"
     inkscape:zoom="16"
     inkscape:cx="15.28125"
     inkscape:cy="8.03125"
     inkscape:window-width="1366"
     inkscape:window-height="697"
     inkscape:window-x="-8"
     inkscape:window-y="-8"
     inkscape:window-maximized="1"
     inkscape:current-layer="g3"><inkscape:grid
       id="grid1"
       units="px"
       originx="0"
       originy="0"
       spacingx="0.26458333"
       spacingy="0.26458334"
       empcolor="#0099e5"
       empopacity="0.30196078"
       color="#0099e5"
       opacity="0.14901961"
       empspacing="5"
       dotted="false"
       gridanglex="30"
       gridanglez="30"
       visible="true" /></sodipodi:namedview><defs
     id="defs1" /><g
     id="layer1"
     transform="translate(-0.75240885)"><g
       id="g3"
       transform="matrix(0.76162583,0,0,0.76162583,0.01269737,-0.14180212)"><path
         id="path1"
         style="fill:#8da5f3;fill-opacity:1;stroke:none;stroke-width:0.173696;stroke-linecap:round;stroke-linejoin:round;stroke-dasharray:none;stroke-opacity:1"
         d="m 1.3186197,1.2283619 c 4.754e-4,0.3467626 0,0.6954641 0,0.6954641 v 0.3473928 1.3888927 0.3473928 c 0,0 3.779e-4,0.3528396 0,0.6954641 -3.779e-4,0.3426245 0.3482185,0.6940589 0.6947856,0.6934286 0.3465671,-6.303e-4 0.6954641,0 0.6954641,0 h 0.3460358 1.3902497 0.3480713 c 0,0 0.348523,0.00323 0.6947856,0 0.3462626,-0.00323 0.6939939,-0.3508996 0.6934286,-0.6934286 -5.653e-4,-0.342529 0,-0.6954641 0,-0.6954641 V 3.6601115 2.2712188 1.923826 c 0,0 -6.627e-4,-0.3449587 0,-0.6954641 6.627e-4,-0.35050543 -0.3431845,-0.69579164 -0.6934286,-0.69546416 -0.3502441,3.2748e-4 -0.6947856,0 -0.6947856,0 H 4.4451549 3.0549052 2.7088694 c 0,0 -0.3487538,-0.003489 -0.6954641,0 -0.3467103,0.003489 -0.695261,0.34870152 -0.6947856,0.69546416 z m 0.6947856,0 H 2.7088694 V 1.7352025 C 2.8125431,1.6658746 2.9310897,1.6219426 3.0549052,1.6069657 V 1.2283619 h 1.3902497 v 0.3752113 c 0.1248709,0.01589 0.2441749,0.061239 0.3480713,0.1323078 V 1.2283619 H 5.4880118 V 1.923826 H 4.9872777 c 0.074826,0.1026767 0.1239217,0.2218094 0.1431638,0.3473928 H 5.4880118 V 3.6601115 H 5.1358695 C 5.123765,3.7836514 5.0828652,3.9026326 5.0164532,4.0075043 H 5.4880118 V 4.7029684 H 4.7932262 V 4.2381948 C 4.6893298,4.3092635 4.5700258,4.354613 4.4451549,4.3705026 V 4.7029684 H 3.0549052 V 4.3671101 C 2.9310897,4.3521332 2.8125431,4.3082012 2.7088694,4.2388733 V 4.7029684 H 2.0134053 V 4.0075043 H 2.4856424 C 2.4199475,3.9024508 2.3797488,3.7834812 2.3682616,3.6601115 H 2.0134053 V 2.2712188 H 2.3723326 C 2.3917769,2.1455753 2.4411072,2.0264379 2.5161749,1.923826 H 2.0134053 Z"
         sodipodi:nodetypes="zcccczzcccczzcccczzcccczzccccccccccccccccccccccccccccccccccccc" /><path
         d="M 3.1501862,1.5757546 A 0.80024412,0.80024412 0 0 0 2.3499421,2.3759987 V 3.5763649 A 0.80024412,0.80024412 0 0 0 3.1501862,4.376609 H 4.3505524 A 0.80024412,0.80024412 0 0 0 5.1507965,3.5763649 V 2.3759987 A 0.80024412,0.80024412 0 0 0 4.3505524,1.5757546 Z m -0.400122,1.2003662 a 0.20006103,0.20006103 0 0 1 0.400122,0 v 0.400122 a 0.20006103,0.20006103 0 0 1 -0.400122,0 z m 2.0006103,0.400122 a 0.20006105,0.20006105 0 0 1 -0.4001221,0 v -0.400122 a 0.20006105,0.20006105 0 0 1 0.4001221,0 z M 4.3161419,3.9420765 a 0.80024412,0.80024412 0 0 1 -1.1315452,0 0.20006103,0.20006103 0 0 1 0.2828863,-0.2828863 0.40012206,0.40012206 0 0 0 0.5657726,0 0.20006103,0.20006103 0 0 1 0.2828863,0.2828863 z"
         fill="#8da5f3"
         id="path1-7"
         style="stroke-width:0.200061" /></g></g></svg>
